<?xml version="1.0" standalone="no"?>
<!DOCTYPE svg PUBLIC "-//W3C//DTD SVG 20010904//EN"
 "http://www.w3.org/TR/2001/REC-SVG-20010904/DTD/svg10.dtd">
<svg version="1.0" xmlns="http://www.w3.org/2000/svg"
 width="1024.000000pt" height="1024.000000pt" viewBox="0 0 1024.000000 1024.000000"
 preserveAspectRatio="xMidYMid meet">
<metadata>
Created by potrace 1.11, written by Peter Selinger 2001-2013
</metadata>
<g transform="translate(0.000000,1024.000000) scale(0.100000,-0.100000)"
fill="#000000" stroke="none">
<path d="M0 5120 l0 -5120 5120 0 5120 0 0 5120 0 5120 -5120 0 -5120 0 0
-5120z m3519 3574 c26 -21 31 -33 31 -68 0 -67 -42 -98 -150 -110 -41 -5 -134
-29 -144 -38 -6 -4 -17 -8 -25 -8 -23 0 -158 -71 -222 -116 -149 -104 -280
-272 -350 -449 -36 -93 -51 -176 -56 -325 -6 -152 -6 -155 -34 -182 -49 -50
-117 -33 -153 39 -18 36 -22 200 -7 262 5 20 14 64 20 98 44 240 193 493 385
651 62 52 208 152 221 152 2 0 29 11 58 25 79 35 135 53 234 73 133 27 156 27
192 -4z m1937 -23 c58 -26 112 -77 138 -130 13 -25 56 -127 96 -226 39 -99 76
-191 82 -205 17 -40 21 -51 138 -345 129 -325 122 -306 149 -367 12 -26 21
-50 21 -54 0 -3 75 -191 166 -417 91 -227 169 -421 174 -432 4 -11 12 -31 18
-45 5 -14 20 -50 32 -80 11 -30 25 -64 30 -75 20 -42 483 -1202 497 -1245 20
-59 13 -161 -15 -215 -26 -50 -75 -101 -121 -125 -20 -10 -166 -70 -326 -134
-159 -65 -300 -121 -312 -126 -29 -12 -46 -19 -173 -70 -68 -26 -448 -178
-475 -189 -11 -5 -31 -13 -45 -18 -14 -6 -36 -15 -50 -21 -14 -6 -128 -53
-255 -104 -218 -87 -234 -92 -305 -93 -84 0 -138 21 -198 78 -43 41 -47 51
-153 317 -50 124 -94 234 -99 245 -16 33 -365 903 -472 1175 -55 140 -103 264
-108 275 -64 150 -114 274 -165 405 -31 80 -63 159 -70 175 -25 56 -283 699
-325 810 -23 61 -48 124 -56 141 -22 50 -27 109 -14 166 15 62 30 89 79 141
45 48 59 55 441 207 140 55 266 106 280 112 14 6 35 15 48 19 12 5 34 14 50
20 38 16 25 11 482 194 228 92 425 171 438 176 12 5 32 13 45 18 127 53 156
60 222 60 47 1 83 -6 111 -18z m-1903 -352 c36 -18 57 -52 57 -90 0 -53 -33
-84 -106 -99 -143 -29 -230 -75 -326 -171 -115 -113 -168 -237 -168 -392 0
-98 -17 -141 -64 -164 -34 -16 -38 -16 -72 0 -62 30 -76 99 -53 263 42 306
266 558 564 638 103 27 138 30 168 15z m4165 -2940 c41 -14 56 -40 74 -124 21
-97 22 -107 21 -220 -1 -137 -8 -189 -50 -335 -82 -286 -303 -548 -589 -697
-94 -50 -241 -96 -280 -88 -65 12 -93 85 -57 146 14 23 34 34 98 55 325 104
552 337 651 669 23 78 27 109 28 235 1 85 -4 172 -12 210 -16 79 -7 111 40
140 39 23 36 23 76 9z m-363 -103 c35 -35 49 -97 50 -216 0 -132 -14 -207 -60
-312 -75 -173 -179 -290 -340 -380 -60 -34 -184 -78 -219 -78 -27 0 -86 64
-86 93 0 50 40 88 122 118 186 66 322 214 373 404 18 64 19 97 9 243 -6 92 -6
94 22 123 36 38 93 40 129 5z m-4380 -2280 c72 -19 127 -49 175 -97 66 -66 85
-116 85 -229 0 -82 -4 -103 -26 -150 -34 -72 -81 -122 -152 -164 l-57 -34 37
-7 c106 -20 215 -110 252 -210 20 -51 22 -75 19 -161 -3 -89 -7 -108 -36 -166
-52 -106 -159 -189 -287 -223 -46 -12 -118 -15 -322 -15 l-263 0 0 735 0 735
263 0 c187 0 276 -4 312 -14z m795 -481 c0 -530 2 -558 51 -662 35 -74 90
-124 168 -154 80 -31 233 -31 313 0 64 25 127 81 158 140 47 92 50 134 50 669
l0 502 91 0 90 0 -3 -527 -4 -528 -25 -82 c-78 -249 -240 -358 -534 -357 -278
1 -438 113 -511 359 -16 53 -18 119 -21 598 l-4 537 90 0 91 0 0 -495z m1747
-20 c123 -280 240 -548 258 -595 33 -85 34 -85 45 -55 25 68 121 285 313 710
l203 450 112 3 112 3 0 -736 0 -735 -91 0 -92 0 5 605 4 605 -22 -57 c-12 -32
-92 -215 -179 -408 -86 -192 -195 -439 -243 -547 l-87 -198 -46 0 c-40 0 -47
3 -58 28 -7 15 -81 178 -163 362 -82 184 -191 425 -240 535 -50 110 -98 224
-107 253 -15 50 -16 16 -12 -562 l3 -616 -91 0 -91 0 0 735 0 736 121 -3 120
-3 226 -510z m2058 487 c122 -45 211 -131 251 -242 22 -61 29 -201 15 -272
-36 -169 -170 -306 -348 -354 -34 -9 -124 -18 -215 -21 l-158 -6 0 -273 0
-274 -90 0 -90 0 0 736 0 735 288 -3 c268 -3 291 -5 347 -26z"/>
<path d="M4990 8068 c-135 -55 -254 -103 -265 -107 -11 -5 -33 -14 -50 -21
-16 -7 -39 -16 -50 -21 -937 -373 -873 -346 -891 -381 -19 -36 -22 -25 113
-363 58 -143 136 -339 175 -435 38 -96 74 -184 78 -195 8 -17 117 -290 332
-830 22 -55 46 -113 53 -130 7 -16 68 -167 135 -335 175 -439 182 -455 209
-469 36 -20 68 -12 253 63 101 40 215 86 253 101 39 15 84 33 100 40 32 14
721 291 815 328 30 11 59 25 65 29 5 4 16 8 24 8 8 0 29 11 48 26 24 18 33 33
33 55 0 22 -320 846 -429 1104 -5 11 -14 34 -21 50 -7 17 -16 38 -21 47 -5 10
-9 24 -9 31 0 7 -9 32 -20 54 -10 22 -134 328 -275 679 -141 352 -262 653
-270 671 -8 17 -15 36 -15 42 0 24 -55 61 -90 60 -20 0 -141 -44 -280 -101z
m-392 -1255 c25 -15 61 -85 62 -117 0 -34 -42 -93 -82 -116 -32 -18 -50 -21
-91 -17 -44 4 -56 10 -83 41 -43 50 -49 89 -24 142 12 23 31 49 44 58 54 35
126 39 174 9z m911 -19 c72 -21 143 -88 187 -177 31 -60 194 -448 194 -460 0
-10 -232 -98 -239 -91 -4 5 -41 90 -81 189 -90 222 -100 243 -140 280 -56 53
-137 38 -193 -37 -36 -48 -26 -96 68 -322 47 -115 87 -213 88 -218 2 -7 -195
-94 -227 -101 -8 -2 -310 713 -303 719 6 5 222 94 230 94 4 0 17 -21 28 -47
l20 -48 18 53 c22 63 59 105 123 138 87 44 148 52 227 28z m-636 -635 c82
-198 147 -362 145 -364 -15 -13 -233 -94 -238 -88 -9 11 -290 697 -290 709 0
7 207 100 230 103 3 0 72 -162 153 -360z"/>
<path d="M5742 4837 c-135 -50 -174 -200 -78 -305 47 -53 146 -68 215 -33 42
22 50 30 80 84 53 96 -5 222 -118 255 -46 14 -56 14 -99 -1z"/>
<path d="M2580 2614 l0 -237 133 6 c146 5 202 20 259 67 52 43 79 104 79 182
1 165 -80 218 -333 218 l-138 0 0 -236z"/>
<path d="M2580 1959 l0 -261 173 4 c155 3 177 6 224 27 180 81 206 340 44 438
-72 43 -127 53 -296 53 l-145 0 0 -261z"/>
<path d="M7120 2549 l0 -302 138 6 c183 8 256 30 322 96 58 58 80 118 80 217
0 128 -48 208 -154 256 -45 20 -70 23 -218 26 l-168 4 0 -303z"/>
</g>
</svg>
