<?xml version="1.0" standalone="no"?>
<!DOCTYPE svg PUBLIC "-//W3C//DTD SVG 20010904//EN"
 "http://www.w3.org/TR/2001/REC-SVG-20010904/DTD/svg10.dtd">
<svg version="1.0" xmlns="http://www.w3.org/2000/svg"
 width="480.000000pt" height="480.000000pt" viewBox="0 0 480.000000 480.000000"
 preserveAspectRatio="xMidYMid meet">
<metadata>
Created by potrace 1.11, written by Peter Selinger 2001-2013
</metadata>
<g transform="translate(0.000000,480.000000) scale(0.100000,-0.100000)"
fill="#000000" stroke="none">
<path d="M685 4789 c-92 -14 -157 -35 -257 -86 -77 -39 -110 -64 -189 -143
-84 -84 -101 -108 -147 -200 -95 -193 -87 -14 -87 -1955 0 -1945 -7 -1778 88
-1968 43 -88 64 -115 146 -198 85 -85 108 -102 201 -147 194 -95 14 -87 1960
-87 1612 0 1719 1 1784 18 294 75 518 299 593 593 17 65 18 172 18 1784 0
1946 8 1766 -87 1960 -45 93 -61 115 -147 200 -78 78 -113 105 -188 143 -51
26 -128 58 -170 70 l-78 22 -1690 1 c-929 1 -1717 -2 -1750 -7z m415 -501 c28
-30 26 -79 -3 -107 -14 -13 -46 -25 -78 -30 -279 -46 -506 -255 -584 -536 -9
-33 -19 -117 -22 -188 -5 -118 -8 -129 -31 -152 -33 -33 -57 -32 -94 5 l-31
31 6 137 c6 137 15 183 57 297 100 264 337 480 599 545 106 26 155 25 181 -2z
m1442 -12 c75 -32 115 -99 208 -351 10 -27 27 -72 38 -100 11 -27 41 -106 66
-175 26 -69 51 -134 57 -145 9 -19 361 -933 418 -1085 16 -41 108 -282 205
-534 151 -390 177 -467 177 -513 0 -66 -29 -132 -78 -172 -19 -16 -145 -75
-281 -131 -480 -201 -658 -276 -729 -306 -17 -8 -34 -14 -37 -14 -3 0 -31 -12
-63 -26 -130 -60 -318 -135 -352 -140 -78 -13 -177 42 -217 119 -9 18 -55 136
-104 262 -137 362 -464 1212 -542 1410 -38 99 -147 380 -241 625 -154 398
-172 451 -172 505 0 103 56 174 175 224 30 13 73 31 95 41 22 10 103 44 180
75 138 56 167 68 235 98 19 8 188 79 375 157 187 78 354 148 370 155 86 38
159 45 217 21z m-1401 -295 c33 -33 35 -50 14 -90 -10 -21 -26 -31 -62 -40
-134 -35 -209 -77 -275 -157 -69 -83 -107 -192 -108 -312 0 -55 -3 -66 -26
-87 -15 -14 -35 -25 -44 -25 -30 0 -69 39 -76 77 -9 50 12 207 37 273 70 184
232 330 415 374 84 20 92 19 125 -13z m3121 -2291 c34 -26 53 -122 52 -265 -1
-359 -224 -699 -546 -833 -108 -45 -150 -50 -177 -21 -56 60 -31 110 75 150
145 54 241 122 328 230 114 144 167 295 167 474 0 61 -5 134 -10 163 -9 43 -8
59 4 82 23 45 66 53 107 20z m-295 -65 c26 -19 43 -90 43 -186 0 -73 -25 -205
-41 -214 -5 -4 -9 -14 -9 -24 0 -31 -93 -163 -153 -217 -80 -74 -198 -134
-261 -134 -32 0 -66 39 -66 76 0 42 24 68 85 90 103 37 197 120 244 217 44 91
55 153 47 265 -7 90 -6 99 14 120 24 26 66 29 97 7z"/>
<path d="M2030 3729 c-195 -83 -445 -187 -555 -233 -156 -65 -203 -89 -215
-109 -13 -23 -11 -34 36 -159 46 -121 607 -1581 676 -1758 16 -41 38 -97 47
-125 38 -103 57 -125 101 -116 15 3 338 136 417 172 23 10 44 19 48 19 3 0 27
10 53 21 108 49 158 70 376 160 158 65 233 101 243 117 19 28 45 -45 -280 797
-481 1251 -508 1320 -523 1343 -9 14 -24 22 -42 21 -15 0 -187 -68 -382 -150z
m-118 -918 c28 -25 33 -36 33 -76 0 -40 -5 -51 -32 -76 -56 -49 -114 -51 -158
-3 -46 49 -33 127 27 164 48 29 91 26 130 -9z m694 -10 c71 -32 105 -85 190
-296 43 -107 76 -196 73 -198 -15 -15 -174 -76 -179 -70 -4 5 -35 81 -69 169
-64 165 -92 209 -138 220 -33 9 -87 -19 -102 -52 -20 -45 -12 -83 55 -255 37
-93 65 -171 63 -173 -19 -14 -175 -73 -180 -68 -11 12 -212 526 -213 546 -1
14 18 27 77 52 44 19 83 34 88 34 6 0 16 -13 23 -30 l12 -30 22 44 c50 104
177 153 278 107z m-502 -476 c57 -143 106 -269 110 -280 5 -18 -5 -25 -81 -58
-48 -20 -90 -34 -94 -29 -13 13 -220 545 -216 555 4 13 147 77 165 74 8 -1 58
-115 116 -262z"/>
<path d="M2745 1270 c-45 -18 -85 -83 -85 -138 0 -37 33 -88 72 -112 63 -38
138 -19 178 45 28 45 25 132 -6 166 -37 42 -110 60 -159 39z"/>
</g>
</svg>
